<?xml version="1.0" standalone="no"?><!DOCTYPE svg PUBLIC "-//W3C//DTD SVG 1.1//EN" "http://www.w3.org/Graphics/SVG/1.1/DTD/svg11.dtd"><svg t="1638152579095" class="icon" viewBox="0 0 1024 1024" version="1.1" xmlns="http://www.w3.org/2000/svg" p-id="10028" xmlns:xlink="http://www.w3.org/1999/xlink" width="200" height="200"><defs><style type="text/css"></style></defs><path d="M251.648 127.232H601.6c7.936 0 15.616 3.584 20.48 8.704l213.76 213.76c5.888 5.632 8.448 13.312 8.448 20.736V816.128c0 21.504-8.704 41.728-23.04 55.808v0.256l-0.768 0.512c-14.336 14.08-33.536 22.528-55.04 22.528H251.648c-21.504 0-41.216-8.96-55.552-23.296h-0.256c-14.592-14.336-23.04-34.304-23.04-56.064v-609.28c0-22.528 8.704-42.24 23.04-56.064 14.336-14.336 34.304-23.296 55.808-23.296z m534.016 260.864h-134.4c-18.432 0-35.584-7.68-47.872-19.712l-0.768-1.024c-11.264-12.032-18.944-28.416-18.944-46.592V186.624H251.648c-5.12 0-10.496 1.792-13.824 5.632-3.84 3.584-6.144 8.704-6.144 14.336v609.28c0 5.376 2.304 10.24 6.144 14.336h-0.256c3.584 3.328 8.704 5.632 14.08 5.632H765.44c5.632 0 10.752-2.304 14.336-5.632h0.256c3.328-4.096 5.632-8.704 5.632-14.336V388.096z m-29.952-35.328l-136.448-136.192v104.448c0 8.192 3.072 15.872 8.704 21.76l0.768 0.512c5.632 5.888 13.824 9.472 22.528 9.472h104.448z" fill="#040000" p-id="10029"></path></svg>