<?xml version="1.0" standalone="no"?><!DOCTYPE svg PUBLIC "-//W3C//DTD SVG 1.1//EN" "http://www.w3.org/Graphics/SVG/1.1/DTD/svg11.dtd"><svg t="1638160515342" class="icon" viewBox="0 0 1024 1024" version="1.1" xmlns="http://www.w3.org/2000/svg" p-id="15176" xmlns:xlink="http://www.w3.org/1999/xlink" width="200" height="200"><defs><style type="text/css"></style></defs><path d="M732 174.4l117.7 117.7c9.9 9.9 9.9 26.2 0 36l-41 41c-9.9 9.9-26.2 9.9-36 0L655.2 251.4c-9.9-9.9-9.9-26.2 0-36l41-41c9.8-9.9 26-9.9 35.8 0zM616.9 289.7l117.7 117.7c9.9 9.9 9.9 26.2 0 36L425.8 752.2c-9.9 9.9-26.2 9.9-36 0L272 634.4c-9.9-9.9-9.9-26.2 0-36l308.8-308.8c9.9-9.9 26.1-9.9 36.1 0.1zM232.4 674l117.8 117.8c9.9 9.9 9.9 26.2 0 36L212 849.6c-9.9 9.9-26.2 9.9-36 0l-1.8-1.8c-9.9-9.9-9.9-26.2 0-36L196.4 674c9.9-9.9 26.2-9.9 36 0z" fill="#515151" p-id="15177"></path></svg>