<?xml version="1.0" standalone="no"?><!DOCTYPE svg PUBLIC "-//W3C//DTD SVG 1.1//EN" "http://www.w3.org/Graphics/SVG/1.1/DTD/svg11.dtd"><svg t="1638151513159" class="icon" viewBox="0 0 1024 1024" version="1.1" xmlns="http://www.w3.org/2000/svg" p-id="2455" xmlns:xlink="http://www.w3.org/1999/xlink" width="200" height="200"><defs><style type="text/css"></style></defs><path d="M377.1862185 478.32251h269.67700171c9.31420898 0 17.23425293 3.29260253 23.84417701 9.88769508 6.57531762 6.59014916 9.87780761 14.52008057 9.87780762 23.78979492 0 9.26971435-3.30249 17.30346656-9.87780762 23.89361572-6.60992408 6.59509253-14.53491211 9.88769508-23.84417701 9.88769507H377.1862185c-9.29937744 0-17.25402856-3.29260253-23.82440209-9.88769507C346.73706078 529.30346656 343.46423316 521.26971435 343.46423316 512s3.27777099-17.20458984 9.89758325-23.79473901c6.57531762-6.59014916 14.52502465-9.88769508 23.82934547-9.88769507m404.49078392-269.64239526H242.36254883c-9.29937744 0-17.21942138 3.29260253-23.82934547 9.88769579-6.58520508 6.48632836-9.88275171 14.52008057-9.8827517 23.78979492v539.29467726c0 9.26971435 3.29754663 17.30346656 9.87780762 23.89361572 6.61486816 6.59014916 14.53491211 9.88769508 23.83428955 9.88769579h539.32434106c9.31420898 0 17.25402856-3.29754663 23.83428955-9.88769579 6.61486816-6.59014916 9.89758325-14.62390137 9.89758253-23.89361572V242.35266137c0-9.26971435-3.28271508-17.30346656-9.89758253-23.78979492-6.58026099-6.59509253-14.52008057-9.88769508-23.82934618-9.88769579M242.33288574 141.21142578h539.33422851c27.89318824 0 51.73736596 9.88769508 71.48309303 29.66308594C872.91076661 190.55102516 882.78857422 214.44464087 882.78857422 242.35266137v539.29467726c0 27.90801978-9.87780761 51.70275879-29.63342286 71.47814965-19.74572778 19.77539086-43.58990479 29.66308594-71.48309301 29.66308594H242.33782983c-27.92285133 0-51.74725342-9.88769508-71.4929812-29.66308594C151.08923339 833.35009742 141.21142578 809.55535913 141.21142578 781.64733863V242.35266137C141.21142578 214.44464087 151.08923339 190.55102516 170.84484863 170.87451172c19.74572778-19.77539086 43.57012915-29.66308594 71.4929812-29.66308594" p-id="2456"></path></svg>